<svg version="1" xmlns="http://www.w3.org/2000/svg" width="1606.667" height="1606.667" viewBox="0 0 1205.000000 1205.000000"><path d="M322.5 4.5c-43.7 8.3-71.1 47-82.6 116.5-1.2 7.4-2.2 13.6-2.3 13.7 0 0-5.9 1.1-13.1 2.3-43.1 7.2-67.3 25.1-73.9 54.7-3 13.6-1.4 34.2 4 51.3 1.3 4.1 2.4 7.8 2.4 8.2 0 .3-3.8 3.1-8.4 6.2-16.1 10.7-27.3 25.8-31 41.6-2 8.2-2 23.6-.2 33.3 2.9 15.2 11.2 35.8 21.3 53l4 6.9-4.7 8.4c-7.3 13-10.3 22.9-10.4 34.5-.1 9.1.1 9.9 3.6 17.1 2.5 4.9 5.5 9.1 8.9 12.3l5.1 4.7-2.6 9.2c-3.4 12-4.1 19.6-2.6 28.5 2.9 17.5 14.6 31.8 37.2 45.5 2.7 1.6 2.7 1.7 1 3.4-13 13-10.9 25.3 5.7 33.6 3.6 1.8 8.4 3.9 10.6 4.6 2.2.7 4.3 1.4 4.7 1.7.4.2-.7 2.4-2.3 4.8-6.9 10.2-9.9 25.5-8.1 41.2 1.4 12.2 5.4 27.7 8.9 34.6 8.4 16.8 25.9 37.4 49 57.8l11.1 10 9.9-1.7c7.3-1.3 12.7-1.5 21.3-1.1 24.9 1.4 34.6 7.5 35.8 22.5.7 9.3.9 9.5 11.2 8.7 12.5-1 21.9-3 37-8.2 9.2-3.1 13.5-4.2 13.8-3.4 2.3 6.9 16.4 17.5 32.4 24.2 5.7 2.4 10.4 4.4 10.6 4.5.2.1-4 6.4-9.1 14-28.6 42.1-43.4 79-46.8 116.7-1.4 15.3-.2 31.9 3.6 47.4 11.8 48.8 49.6 92.6 112.4 130.5 16.2 9.7 36.4 19.9 51.6 25.9 6.1 2.4 11.2 4.5 11.4 4.6.2.1-3.1 3.6-7.3 7.7-11.8 11.5-15.1 20.8-10.6 29.6 1.9 3.7 7.6 9 9.7 9 .6 0 3.7-2.1 6.9-4.6 12.7-9.9 15-9.7 20 1.4 5.6 12.3 5.9 12.7 8.2 13 1.5.2 4.1-1.3 7.9-4.6 7.8-6.7 11.5-8.4 15.9-7.6 3.4.6 13.2 6.4 18.7 11 4.1 3.5 8.3 3.1 12.1-1 4.4-4.6 5.9-10.4 5.8-21.3-.1-10.7-1.2-10 11.9-7.9 13 2.2 38.4 4.6 56.6 5.4 8.9.4 16.4 1 16.7 1.3.3.2-.7 3.6-2.1 7.4-2 5.3-2.6 9-2.7 15.1-.1 7.2.2 8.5 2.7 12.3 3.1 4.6 8.5 7.6 12.2 6.7 1.1-.3 3.6-2.6 5.3-5 3.6-5 9.9-10.4 15.1-13.1 8-4 21.2-1.4 32.5 6.5 8.2 5.7 9.6 5.3 11.6-3.4 1.4-6.4 3.3-9.8 7.1-13.1 2.9-2.4 3.7-2.6 8.3-2 6.6.9 14 3.7 19.6 7.5 7.2 4.8 11.9 4.1 15.2-2.4 4.2-8.2 2.3-18.6-5.6-29.6l-3.4-4.7 14-5.2c58.1-21.6 104.9-49.1 140.7-82.7 25.4-23.9 47.8-56.4 60.2-87.4l3.4-8.5-.1-20.5c-.2-39.6-5.4-73.3-15.9-102.7l-3.6-10 6.9-6.9c10.7-10.7 18.6-28.4 23.6-52.6 2.5-12 5.6-35.6 5-37.3-.7-1.7-4.7-3-6.4-2-.6.4-2 2.6-3.1 5.1-2.5 5.2-10.5 12.8-17.6 16.6l-5 2.8 4.1-8.3c5.7-11.3 8-21.5 7.3-32-.6-10-2.5-15.7-8.5-26.5-4.7-8.2-7.1-10.2-10.7-8.8-1.6.6-1.9 1.2-2.9 5.6-1.7 7.6-18.8 27.5-33 38.3-7.2 5.5-28.2 18.7-29.7 18.7-.3 0-1.9-1.8-3.5-4.1-5-7.3-15.9-16.4-24.7-20.8-8.3-4.1-25.2-9.1-31.1-9.1-4.1 0-5.2-.9-6-4.5-.8-4 .6-8.9 2.8-9.3.9-.2 5 1 9.1 2.7 15.5 6.5 34.2 8.8 47.7 6 12.4-2.6 25.7-11.1 34.8-22 5-6 5.9-8.2 3.9-9.5-.6-.3-5.9-.7-11.7-.8-15-.3-21.2-3.3-21.2-10.2 0-6.4 3.4-11.5 10.2-15.4 28.2-16.1 34.8-42.1 18.8-74.7l-4.7-9.6 8.6-8.6c13.2-13 18.1-24.2 18.1-40.9 0-14.9-3.8-28.1-13.2-46.6-3.4-6.6-4.8-10.3-4.2-11.1 14.7-19.9 21.6-35.1 22.9-50.7 1.3-14.2-4.4-30.7-14.6-42.1l-4.9-5.5 4-9.5c10.6-25.4 11.3-48.2 1.9-67.4-6.1-12.7-20.1-26.9-34.6-35.4l-4.6-2.7-.2-17.9c-.2-15.1-.5-18.9-2.4-25.3-5.1-17-14.1-28.3-28.2-34.9-11.1-5.3-20.6-7.1-37.4-7.1H892v-7.8c-.1-22.5-9.6-40.2-26-48-10.1-4.8-20.7-6.5-37.5-6l-14.3.3-1.7-5.5c-6.3-20.2-20.4-33.6-41.4-39.2-10.1-2.7-32.2-2.9-46.6-.3-14.2 2.4-33.7 7.6-50.2 13.2l-14.2 4.9-4.6-9.1C643 28.7 624.6 13.3 603 9.4c-28.4-5.1-65 9.6-108.3 43.5l-11.8 9.2-14.7-9.4c-33.8-21.6-58.4-33.9-84.3-42.2-21.9-6.9-44.7-9.2-61.4-6zm211.7 341.8c12.2 7.4 25.6 9 37.3 4.7 4.3-1.7 6-2 6.3-1.1 1.1 3.3 10.8 16.4 14.5 19.7 2.3 2 7.1 5.1 10.7 6.8 6 2.8 7.3 3.1 16.5 3.1 11.8-.1 18.6-2.1 30.9-9.1l7.8-4.5 1.6 2.3c3.9 5.8 12.1 12.6 17.8 14.8 8.8 3.3 20.5 3.1 33.4-.5 1.2-.4 1.5 1 1.6 8.3.4 27.2 22 47.7 65.2 62.1 12 4 31.6 9.1 43.4 11.2 4.1.8 6.9 1.8 7.3 2.7 1.3 3.4 1.7 22.4.6 30.9-1.3 10.3-5.2 26.9-7.6 31.5-2.4 4.9-1.9 6.4 3.3 9.6 9 5.8 14.8 7.6 25.2 7.6 12.4.1 14.9-1.1 16.6-7.9.7-2.8 2.1-10.9 3.3-18 4-25.7 12.2-46.3 22.1-56 5-4.9 5.2-5 6.7-3 .8 1.1 2.7 4.5 4.2 7.5 2.2 4.8 2.6 6.8 2.6 15 0 8.7-.3 10-3.2 15.5-4.2 8.1-11.8 16.5-14.9 16.5-1.9 0-3 1.2-5.3 5.8-10.1 20-7.3 41.2 7.8 58.4 3.7 4.1 4 4.9 3.1 7.3-2.8 7.3.1 20.9 8.4 40.9 2.6 6.1 4.4 11.7 4.1 12.7-.4 1-2.8 3.8-5.5 6.2-5 4.5-11.9 7.4-20.2 8.4-4.3.5-4.7.4-5-1.7-.6-4.5-3.1-4.7-11.5-1.1-37.5 16-56.7 22.9-81.2 29-39.2 9.9-75.3 11.6-107.3 5-16.7-3.3-39-11.6-43-15.9-4.1-4.3-8.1-1.7-12.3 8-4.3 9.9-5.2 18.7-3.2 31.1 1.4 8.4 5.7 23.2 9.1 31 .6 1.4-.2 1.8-4.1 2.4-11 1.6-31.5 10-42.3 17.4-4 2.7-4.6 2.9-5.5 1.4-2.8-4.6-7.2-8.4-13.5-11.7-8.9-4.7-11.8-4.5-14.3.6-.9 2.1-2.4 3.8-3.2 3.8-.8 0-11.9-1.8-24.7-3.9-26-4.4-46.1-8.7-61.6-13.2-17.6-5.1-17.6-3.7-.8-13.4 22.2-12.7 51.1-30.9 81.6-51.3l27.5-18.5 13.7-2.7c33.5-6.9 51.8-15.7 59.4-28.6 3.5-6 4.3-14.5 1.9-21.6-1-2.9-1.9-6.3-2.1-7.6-.4-3.3-1.5-4.4-13.8-13.1-53.3-37.4-97.9-61.6-128.4-69.7-12.7-3.3-27.6-4.2-35.2-1.9-3 .9-7 2-8.8 2.4-1.7.5-10.7 5.4-20 10.9-50.6 30.2-85.7 44.9-114.6 48.2-4.9.5-9.3.7-9.9.3-.5-.3-13.7-.6-29.3-.7-26.5-.2-28.4-.3-30.5-2.2-3.3-2.9-8.3-11.2-10.8-17.9-2.6-6.8-6.1-23.7-6.1-29.2v-3.5l5.7.7c23 2.7 36.7 8.6 42 18 2.7 4.7 3 11.9.8 14.1-1.9 1.9-.3 5.4 2.5 5.4 3.3 0 18.2-5.1 25.1-8.5 11.3-5.7 15.5-12.6 12.4-20.1-2.2-5.3-5.7-8.8-14.5-14.2-4.1-2.6-7.9-5.2-8.5-5.8-.5-.6-3.7-2.6-7-4.4-23.6-13-38.5-28.5-38.5-39.9.1-12.8 15-25.4 44.6-37.7l8.9-3.7 18.5.2c96.6.9 159.6-27.5 188.6-85.1l3.5-6.9 6.9 6.3c3.8 3.4 9.7 8 13.2 10.1zm-50.6 172.2c13.8 2.5 28.9 8 49.2 18.1 22.9 11.3 39.4 21.2 69.5 41.4 22.7 15.3 23.1 15.6 26.1 21.5 6 11.9 3.3 20.8-8.5 28.5-10.4 6.7-37.2 15-50.4 15.4-5.9.3-6.2.4-24.5 13-43.4 29.9-111.1 71.6-116.3 71.6-.8 0-2.1.8-2.8 1.7-1.7 2-29.7 15.7-43.4 21.1-18.5 7.4-36.4 12.2-45.1 12.2-2.9 0-3.4-.3-3.4-2.4 0-7.1-5.6-16.1-12.9-20.7-8.4-5.4-15.9-7.1-33.6-7.6-8.8-.3-18.6-.1-21.7.5l-5.7.9-11.8-10.7c-18.1-16.4-33.1-34.1-40.7-48-5.5-10.1-8.7-23.2-9.3-38.3-.7-15.4.9-22.8 6.8-31.6 8.5-12.7 23.1-20.1 46.7-23.6 8.4-1.3 17.2-1.6 40.7-1.3 28.6.2 30.4.1 39.5-2.1 29.2-7.2 63.5-22.8 103.3-46.8 7.6-4.6 14.6-8.3 15.5-8.3 1 0 2.7-.7 3.9-1.5 2.7-1.9 11.7-4.3 16.4-4.4 2-.1 7.6.6 12.5 1.4zm558.2 176.2c7.8 18.4 4.4 36.9-10.3 57.1-4.8 6.6-5.4 9.6-2.3 11.6 1.2.7 3.1.7 6.5-.2 5.8-1.5 18.7-7.5 22.8-10.6 5.8-4.4 5.8-4.4 5 1.5-.4 3-2.2 11.4-4.1 18.8-4.3 17.1-11.1 31.5-18.2 38.5l-5 4.9-2.8-5.4c-4.6-9.1-11.4-20-18.5-29.4-7.1-9.5-25.2-27.8-33.1-33.5-2.7-1.8-4.7-3.4-4.5-3.6.1-.1 4.1-2.5 8.8-5.2 19.3-11.4 38.6-28.4 47.9-42.4 2.5-3.7 4.8-6.8 5.1-6.8.4 0 1.6 2.1 2.7 4.7zm-408.2 62.9c8.7 14.8 29.3 32.6 53.7 46.4 3.2 1.8 6.1 3.9 6.4 4.7.3.7-1.1 6.2-3.2 12.1-10.2 29.6-27 58.8-50 86.9-9 10.9-37 40.1-37.8 39.3-.3-.3.1-3.2.9-6.5.7-3.3 1.4-8.5 1.4-11.5 0-4.9.7-6.5 6-15.3 8.3-13.9 10.5-20.7 10.5-33.2 0-8.7-.4-10.7-2.6-15.5-1.5-3-4.2-7.5-6.2-9.9l-3.5-4.4 2.9-6.4c13.6-30.3 14.2-54.5 1.7-65.9-5.3-4.8-11.6-7.3-21.8-8.8l-8.5-1.2 4.5-2.7c8.3-4.8 19.6-9.6 27.6-11.6 9.1-2.3 11.5-2.8 13-3 .6 0 2.9 2.9 5 6.5zm-71 5.6c4.7 5.2 4.3 5.6-7.4 6-5.9.2-10.8.4-10.8.3-.1 0 1.8-2.8 4.3-6.2l4.5-6.3 3.6 1.9c2 1.1 4.6 3 5.8 4.3zm3.2 15.7c1 .5 4.8.4 9.1-.2 9-1.3 22.1.2 27.9 3.2 11.3 5.7 13.9 19.1 7.9 39.6-2.6 8.6-8.2 22.8-10.4 26-2.1 3.2-1.5 5.4 2.8 10.3 13.7 15.6 12.8 33-3.1 56.2-3.6 5.2-3.8 6.1-4.3 15-.8 14.3-5 24.5-13.6 32.8-2.1 2-4.3 4.7-5 5.9-1 2-23 19.3-24.5 19.3-1.2 0-7.8-7.8-12.6-14.8-11.1-16.3-10.4-29.7 1.9-40.3 2.8-2.4 5.1-5.2 5.1-6.2 0-1.1-2.9-4.7-6.5-8.2-8.8-8.5-12-15.3-11.9-25.5.1-9.2 2.3-15.1 9.5-26.2 5.2-7.9 5.3-8 3.6-10.7-7.8-12.2-15.7-37.8-15.7-50.7 0-5 .5-6.5 5.1-13.9 5.1-8.4 6.2-9.3 13.9-11.4 4.5-1.2 18.6-1.4 20.8-.2zm-43.1 55.6c1.4 4.4 4.1 11.5 5.9 15.7l3.3 7.7-4 6.8c-8.3 14.2-10.7 26.6-7.4 37.8 2 7 4.3 11.1 10.1 18.1l4.3 5.1-3 2.9c-8 7.7-11 22.3-6.9 34.4 1.2 3.6 3.5 8.7 5.1 11.4l3 4.8-3.3-2.3c-10-7.1-23.1-22.6-29-34.4-15.2-30-10.8-73.8 11.7-118.5l4.8-9.5 1.4 6c.7 3.3 2.5 9.6 4 14zm173.1 134.1c3.9 1.9 7.2 4 7.2 4.6 0 1.8-10.3 14.9-16.6 21.1-8.2 8-19.4 13.6-29.1 14.4-5 .4-7.3.2-7.3-.5 0-2.3 5.4-17.9 8.1-23.8 6.7-14.2 15.7-21.1 25.9-19.9 2.5.3 7.8 2.2 11.8 4.1zm342.7 15.1c-35.9 67.9-103.9 117.9-207.2 152.3-9.8 3.2-24.5 7.7-32.6 9.9l-14.8 4-24.7.7c-71.5 1.9-144.2-8.7-199-29-15.8-5.8-34.2-13.6-34.2-14.5 0-.4 2.1-1.7 4.8-3 14.7-7.1 33-21.7 41.7-33.3 2.4-3.2 4.8-5.7 5.2-5.6.4.2 3 3.2 5.7 6.8 24.1 31.9 53.1 50.7 91.3 59.2 8.5 1.9 13 2.2 33.8 2.3 26.2 0 34.5-.9 57.8-6.6 72.7-17.7 163.6-67.5 264.2-144.6 7.2-5.5 13.2-9.9 13.4-9.7.2.2-2.2 5.2-5.4 11.1zm-450 156.7c8.3 2.4 20.9 5.6 28.2 7.1 15 3.3 14.3 2.5 14.3 15.5 0 5.5-1.4 13-2.4 13-.4 0-16.9-10.9-19.1-12.6-4.1-3.2-15.6-.2-24.1 6.2l-3 2.4-2.8-5.9c-7-14.6-13.9-16.5-27.3-7.5-7.1 4.8-8.9 4.9-9.8 1.1-1-3.7 2.4-9.3 9.7-16.3 10.6-10.3 11-10.5 16.6-8.7 2.6.8 11.5 3.4 19.7 5.7zm246.8 9.8c4.9 6.1 7.7 12.1 7.7 16.6 0 2.1-.3 4.1-.6 4.5-.3.3-3.6-1-7.2-2.9-8.1-4.2-15.9-6.4-22.8-6.4-7.4 0-13.8 4.5-18 12.7l-3.2 6-3.1-1.9c-5.2-3.3-16.6-6.8-22.8-7-8.4-.2-17.7 4.4-26.6 13.3-5.6 5.6-6.9 6.4-7.6 5.1-2.7-5.3-1.9-12.5 2.6-23.8l2.4-6.1 26.2-.6c15.1-.3 27.5-1 29.2-1.7 3.3-1.2 38.6-11.8 39.7-11.9.4-.1 2.2 1.8 4.1 4.1z"/><path d="M327.9 448.9c-8.7 2.8-16.6 7.8-25.2 16-9.1 8.7-17.7 19.7-17.7 22.6 0 5.5 6.4 6 14.7 1.1 21.8-12.9 53.7-13.8 89.8-2.5 13.1 4.1 15.8 4.5 17.4 2.5 2.3-2.8.4-6-8.7-14.6-14-13.4-27.9-22.1-40.9-25.4-8.2-2.1-22.2-2-29.4.3zM627.5 458.5c-13.3 2.9-29.3 10.4-45.6 21.3-17.4 11.7-19.2 14.6-11.7 18.6l3.8 2 11.7-3.6c25.5-7.7 29.9-8.6 46.9-9.5 19.5-1 35.8 2.4 51.1 10.7 6.6 3.5 7.9 3.9 12.1 3.3 10.3-1.3 10-4-2.6-19.6-9.1-11.2-22.8-20.2-35.4-23.2-7.6-1.8-22.1-1.8-30.3 0zM553.9 784.8c-3.3 1.7-6.5 4.4-8.4 7.1-6.5 9.2-4 26.1 6.7 44.8 7.2 12.6 19.6 30 21.8 30.6 2.4.6 6-1.9 6-4.1 0-.9-3.2-6.2-7-11.6-19.5-27.5-26.3-47.3-18.9-55.2 1.3-1.4 4.4-3.6 6.9-4.7 5.1-2.5 6.5-6.1 3.4-8.4-2.6-1.9-4.5-1.6-10.5 1.5zM583 785.4c-1.3 1.6-1.2 2.1 1.4 14.9 2.2 11 2 25.6-.5 38.4l-2.2 10.7 2.3 1.8c1.6 1.3 2.6 1.5 4.1.8 2.6-1.5 3.4-3.4 5.5-13 3.3-15.7 1.8-42-2.8-51.8-1.5-3.1-5.8-4.1-7.8-1.8zM552.5 869.6c-5.3 5.3-7.5 10.6-7.5 18.5 0 10.2 5.3 20.1 18 33.3 9.6 9.9 9.7 10.1 7.7 11.7-1.9 1.5-2 1.9-.9 5.6 2.1 7.1 1.5 12.3-2.3 20.1-2.9 5.9-3.4 7.6-2.5 9.3.8 1.5 1.9 1.9 4.2 1.7 2.7-.3 3.6-1.2 6.4-6.3 4.5-8.1 5.9-15.2 4.5-22.3-.6-3.1-1.8-6.3-2.6-7.2-1.2-1.4-1.2-1.7.5-2.8 3.7-2.3 2.3-5.1-7.5-15.4-17.5-18.4-20.6-29.9-10.9-39.9 2.7-2.8 3.5-4.3 3.2-6.5-.2-2.4-.8-2.9-3.5-3.2-2.5-.3-3.9.4-6.8 3.4zM587.5 867.4c-1.9 1.4-1.9 1.4.5 13 1.3 6.2 0 14.4-3.5 22.8-3.6 8.3-4 11.1-2.1 12.7 4.1 3.5 8.4-1 12.6-13.4 4.1-11.9 3.5-28-1.1-33.9-2.3-2.9-3.7-3.2-6.4-1.2z"/><path d="M549.1 931.6c-6.4 4.5-9 18.7-5 27.3 4.6 10.3 12.8 18.3 16.7 16.2 3.3-1.7 2.5-6-1.9-10.8-4.5-4.9-7.8-11.4-7.9-15.3 0-1.4 1.4-5.3 3.2-8.7 3.1-6.1 3.1-6.3 1.3-8.3-2.2-2.4-3.3-2.5-6.4-.4zM677.3 972.1c-4.4 1.3-13.4 9.8-16.2 15.4-1.9 3.9-2.1 5.1-1.2 7.2 1.7 3.6 6 2.8 8.6-1.6 3.6-6.2 10.1-11.9 14.2-12.6 5.2-.8 6.7-1.8 7.1-4.4.7-4.7-4.4-6.3-12.5-4zM222.9 773.7c-3 2-22.4 15.7-43.1 30.4-20.7 14.7-38.5 26.9-39.5 27.1-1.3.3-1.8 1.2-1.7 3.6.3 5.2 2.8 8.2 7 8.2 3 0 9.5-4.3 44.7-29.1 22.7-16 42.4-30.4 44-32 3.4-3.7 3.5-7.1.1-9.8-3.7-2.9-5.4-2.7-11.5 1.6zM262.6 785.2c-3.9 3.5-55.6 100.6-55.6 104.4 0 5.7 6.4 8.5 10.8 4.6 1.1-.9 13.9-24.1 28.6-51.4 28.3-52.8 29.1-54.9 24.4-58.2-3.1-2.2-5.2-2-8.2.6zM18.3 846.2c-3.3 4.3-5.6 11.5-6 19.3-.5 7.8-.4 8.7 2.6 15 8.1 17.4 29.2 45.5 64.6 86.3 8.2 9.6 15.1 17.8 15.3 18.2.2.5-2.8 1.1-6.5 1.5-13.9 1.5-32.4 7.2-44.3 13.8-8.2 4.6-19.3 16.1-21.3 22.1-2.4 7.1-2.1 12.3.9 18.5 5.7 11.3 20.7 19.3 42.4 22.6 42.2 6.5 90.7-10.6 100-35.3 1.1-2.9 2-6.1 2-7.1 0-3.7-3.2-7.9-12.6-16.1-17.3-15.3-41.8-41.6-62.4-67-10.1-12.4-37-48.2-37-49.2 0-.4 7.8-.8 17.4-1l17.5-.3 3.1-3c7.1-6.8 6.1-18.5-2.6-30.1-4.5-6-6.2-7.4-9-7.4-3.3 0-4.6 2.4-4.8 8.9-.1 3.4-.6 6.5-1.2 7.1-2.5 2.5-42.1-10.4-48.5-15.7-2.9-2.5-8.1-3.1-9.6-1.1z"/></svg>